HIERARCHY
ROOT Hips
{
	OFFSET 0.000000 0.000000 0.000000
	CHANNELS 6 Xposition Yposition Zposition Zrotation Yrotation Xrotation 
	JOINT LHipJoint
	{
		OFFSET 0.000000 0.000000 0.000000
		CHANNELS 3 Zrotation Yrotation Xrotation
		JOINT LeftUpLeg
		{
			OFFSET 1.363060 -1.794630 0.839290
			CHANNELS 3 Zrotation Yrotation Xrotation
			JOINT LeftLeg
			{
				OFFSET 2.448110 -6.726130 0.000000
				CHANNELS 3 Zrotation Yrotation Xrotation
				JOINT LeftFoot
				{
					OFFSET 2.562200 -7.039590 0.000000
					CHANNELS 3 Zrotation Yrotation Xrotation
					JOINT LeftToeBase
					{
						OFFSET 0.157640 -0.433110 2.322550
						CHANNELS 3 Zrotation Yrotation Xrotation
						End Site
						{
							OFFSET 0.000000 0.000000 0.000000
						}
					}
				}
			}
		}
	}
	JOINT RHipJoint
	{
		OFFSET 0.000000 0.000000 0.000000
		CHANNELS 3 Zrotation Yrotation Xrotation
		JOINT RightUpLeg
		{
			OFFSET -1.305520 -1.794630 0.839290
			CHANNELS 3 Zrotation Yrotation Xrotation
			JOINT RightLeg
			{
				OFFSET -2.542530 -6.985550 0.000000
				CHANNELS 3 Zrotation Yrotation Xrotation
				JOINT RightFoot
				{
					OFFSET -2.568260 -7.056230 0.000000
					CHANNELS 3 Zrotation Yrotation Xrotation
					JOINT RightToeBase
					{
						OFFSET -0.164730 -0.452590 2.363150
						CHANNELS 3 Zrotation Yrotation Xrotation
						End Site
						{
							OFFSET 0.000000 0.000000 0.000000
						}
					}
				}
			}
		}
	}
	JOINT LowerBack
	{
		OFFSET 0.000000 0.000000 0.000000
		CHANNELS 3 Zrotation Yrotation Xrotation
		JOINT Spine
		{
			OFFSET 0.028270 2.035590 -0.193380
			CHANNELS 3 Zrotation Yrotation Xrotation
			JOINT Spine1
			{
				OFFSET 0.056720 2.048850 -0.042750
				CHANNELS 3 Zrotation Yrotation Xrotation
				JOINT Neck
				{
					OFFSET 0.000000 0.000000 0.000000
					CHANNELS 3 Zrotation Yrotation Xrotation
					JOINT Neck1
					{
						OFFSET -0.054170 1.746240 0.172020
						CHANNELS 3 Zrotation Yrotation Xrotation
						JOINT Head
						{
							OFFSET 0.104070 1.761360 -0.123970
							CHANNELS 3 Zrotation Yrotation Xrotation
							End Site
							{
								OFFSET 0.000000 0.000000 0.000000
							}
						}
					}
				}
				JOINT LeftShoulder
				{
					OFFSET 0.000000 0.000000 0.000000
					CHANNELS 3 Zrotation Yrotation Xrotation
					JOINT LeftArm
					{
						OFFSET 3.362410 1.200890 -0.311210
						CHANNELS 3 Zrotation Yrotation Xrotation
						JOINT LeftForeArm
						{
							OFFSET 4.983000 -0.000000 -0.000000
							CHANNELS 3 Zrotation Yrotation Xrotation
							JOINT LeftHand
							{
								OFFSET 3.483560 -0.000000 -0.000000
								CHANNELS 3 Zrotation Yrotation Xrotation
								JOINT LeftFingerBase
								{
									OFFSET 0.000000 0.000000 0.000000
									CHANNELS 3 Zrotation Yrotation Xrotation
									JOINT LeftHandIndex1
									{
										OFFSET 0.715260 -0.000000 -0.000000
										CHANNELS 3 Zrotation Yrotation Xrotation
										End Site
										{
											OFFSET 0.000000 0.000000 0.000000
										}
									}
								}
								JOINT LThumb
								{
									OFFSET 0.000000 0.000000 0.000000
									CHANNELS 3 Zrotation Yrotation Xrotation
									End Site
									{
										OFFSET 0.000000 0.000000 0.000000
									}
								}
							}
						}
					}
				}
				JOINT RightShoulder
				{
					OFFSET 0.000000 0.000000 0.000000
					CHANNELS 3 Zrotation Yrotation Xrotation
					JOINT RightArm
					{
						OFFSET -3.136600 1.374050 -0.404650
						CHANNELS 3 Zrotation Yrotation Xrotation
						JOINT RightForeArm
						{
							OFFSET -5.241900 -0.000000 -0.000000
							CHANNELS 3 Zrotation Yrotation Xrotation
							JOINT RightHand
							{
								OFFSET -3.444170 -0.000000 -0.000000
								CHANNELS 3 Zrotation Yrotation Xrotation
								JOINT RightFingerBase
								{
									OFFSET 0.000000 0.000000 0.000000
									CHANNELS 3 Zrotation Yrotation Xrotation
									JOINT RightHandIndex1
									{
										OFFSET -0.622530 -0.000000 -0.000000
										CHANNELS 3 Zrotation Yrotation Xrotation
										End Site
										{
											OFFSET 0.000000 0.000000 0.000000
										}
									}
								}
								JOINT RThumb
								{
									OFFSET 0.000000 0.000000 0.000000
									CHANNELS 3 Zrotation Yrotation Xrotation
									End Site
									{
										OFFSET 0.000000 0.000000 0.000000
									}
								}
							}
						}
					}
				}
			}
		}
	}
}
MOTION
Frames: 10
Frame Time: 0.008333
2.256572 15.592068 -0.684385 153.758684 -83.510718 -114.430927 -8.558900 -3.400085 0.803824 -4.398775 -5.152444 -80.813240 1.733570 4.715243 71.683554 4.428657 22.639545 1.970210 4.982300 0.000001 -43.477999 8.362659 1.553329 1.544022 9.184425 9.301040 -70.162516 0.688409 -4.231239 59.315191 -3.487366 -7.916370 -26.637171 2.653100 0.000000 -44.818200 -1.217084 -1.778579 0.628214 -0.954775 -1.727282 -2.607659 -5.296929 -1.721836 0.848242 10.701119 -14.541854 -11.980654 -1.133728 0.015842 -1.630971 0.000000 0.000000 0.000000 5.939363 11.810975 4.243472 -61.047545 18.000703 -0.875227 -1.306419 -67.996553 -0.008427 0.272705 4.629630 0.016634 -0.123106 0.116198 -0.000000 0.000000 0.000000 0.000000 0.000000 0.000000 0.000000 5.337008 -8.427256 0.227268 63.719765 15.969328 7.589335 179.172152 77.356821 179.999504 -0.378611 1.718319 -0.007323 0.040286 -0.493187 0.000000 0.000000 0.000000 0.000000 0.000000 0.000000 0.000000 
2.243791 15.641503 -0.713863 152.965766 -83.307585 -114.355025 -8.517916 -3.435458 0.789093 -4.538148 -5.205811 -80.691124 1.823304 4.695853 72.226944 4.452125 23.179771 4.245510 5.922099 0.000000 -41.999100 8.433986 1.537741 1.478444 9.188377 8.952705 -68.938305 0.734315 -4.158731 58.653984 -3.440440 -7.816905 -26.467638 2.606800 0.000000 -45.093000 -1.359182 -1.750702 0.635290 -0.976774 -1.689911 -2.591557 -5.275822 -1.684827 0.934667 10.684886 -14.656774 -12.012527 -1.117649 0.016723 -1.622866 0.000000 0.000000 0.000000 6.009091 12.245625 4.198668 -61.308991 18.738778 -0.457810 -1.318466 -67.960883 -0.007863 0.039256 4.652584 0.007425 -0.121234 0.107872 -0.000000 0.000000 0.000000 0.000000 0.000000 0.000000 0.000000 5.322358 -8.511078 0.165036 63.604887 16.041519 7.729841 179.173456 77.392287 179.999678 -0.353316 1.645809 -0.006522 0.039685 -0.489997 -0.000000 0.000000 0.000000 0.000000 0.000000 0.000000 0.000000 
2.230714 15.690875 -0.742817 151.873080 -83.143231 -113.945542 -8.469230 -3.465474 0.785967 -4.718146 -5.265151 -80.695356 1.895767 4.683044 72.734278 4.445134 23.519889 6.563015 6.840200 0.000000 -40.511500 8.508527 1.518014 1.413437 9.193363 8.553186 -67.762606 0.785413 -4.091496 57.972484 -3.390399 -7.699633 -26.284295 2.553900 -0.000000 -45.393300 -1.497181 -1.732261 0.628458 -0.997099 -1.662338 -2.578967 -5.254571 -1.657828 1.018755 10.682726 -14.773045 -12.048502 -1.101879 0.017671 -1.616478 0.000000 0.000000 0.000000 6.091894 12.669801 4.152513 -61.579147 19.462905 -0.066104 -1.325129 -67.995631 -0.007355 -0.177382 4.659082 -0.001282 -0.119353 0.100288 -0.000000 0.000000 0.000000 0.000000 0.000000 0.000000 0.000000 5.322334 -8.598475 0.107669 63.477996 16.098511 7.861393 179.172341 77.408146 -179.999937 -0.302249 1.585875 -0.005418 0.038658 -0.487030 0.000000 0.000000 0.000000 0.000000 0.000000 0.000000 0.000000 
2.217614 15.739960 -0.771087 150.471492 -83.025388 -113.184570 -8.413033 -3.491205 0.797224 -4.925134 -5.338493 -80.847936 1.953549 4.678184 73.209204 4.405385 23.627009 8.880630 7.685400 -0.000000 -39.183500 8.584439 1.494156 1.347415 9.205729 8.101844 -66.645270 0.842642 -4.029581 57.270969 -3.338040 -7.565133 -26.091432 2.495700 -0.000000 -45.671400 -1.626800 -1.723315 0.607891 -1.015119 -1.644885 -2.570322 -5.233737 -1.641169 1.098274 10.697999 -14.893209 -12.090891 -1.086388 0.018747 -1.612726 0.000000 0.000000 0.000000 6.189492 13.070794 4.106145 -61.861900 20.175075 0.292977 -1.326160 -68.097983 -0.006881 -0.375464 4.645917 -0.009288 -0.117415 0.093540 -0.000000 0.000000 0.000000 0.000000 0.000000 0.000000 0.000000 5.340148 -8.691485 0.057701 63.335013 16.136525 7.975121 179.168502 77.400620 -179.999401 -0.232993 1.538244 -0.004018 0.037424 -0.484360 0.000000 0.000000 0.000000 0.000000 0.000000 0.000000 0.000000 
2.204718 15.788569 -0.798705 148.755929 -82.957029 -112.058439 -8.348398 -3.513117 0.822956 -5.153629 -5.430546 -81.169975 1.999862 4.683619 73.660592 4.333333 23.483357 11.143371 8.404600 -0.000000 -38.030900 8.661011 1.467003 1.279758 9.227600 7.602508 -65.594877 0.905734 -3.972579 56.549606 -3.284183 -7.417492 -25.886317 2.432700 0.000001 -45.965600 -1.747026 -1.724176 0.575774 -1.030790 -1.637889 -2.565171 -5.213559 -1.635156 1.172634 10.734357 -15.017224 -12.143027 -1.071061 0.020046 -1.612900 0.000000 0.000000 0.000000 6.305198 13.447770 4.061196 -62.159533 20.866336 0.618966 -1.321863 -68.259827 -0.006425 -0.554771 4.612276 -0.016393 -0.115403 0.087713 -0.000000 0.000000 0.000000 0.000000 0.000000 0.000000 0.000000 5.379272 -8.789806 0.016379 63.174052 16.154066 8.063404 179.162002 77.368821 -179.998777 -0.153753 1.503443 -0.002517 0.036174 -0.482060 0.000000 0.000000 0.000000 0.000000 0.000000 0.000000 0.000000 
2.192519 15.836538 -0.825588 146.717387 -82.940275 -110.554246 -8.274618 -3.531892 0.861931 -5.399149 -5.543969 -81.678578 2.038384 4.701900 74.097277 4.231346 23.085583 13.294182 8.952799 -0.000000 -37.011600 8.737033 1.437553 1.208910 9.263715 7.060031 -64.616754 0.974707 -3.920103 55.809176 -3.229845 -7.260875 -25.669654 2.366000 0.000001 -46.265900 -1.855274 -1.734219 0.536709 -1.043872 -1.640797 -2.563054 -5.194788 -1.639196 1.239550 10.793450 -15.146152 -12.206529 -1.056083 0.021602 -1.617737 0.000000 0.000000 0.000000 6.439993 13.790147 4.019080 -62.475894 21.538369 0.904982 -1.312259 -68.477736 -0.005961 -0.719015 4.557692 -0.022698 -0.113227 0.082841 -0.000000 0.000000 0.000000 0.000000 0.000000 0.000000 0.000000 5.441750 -8.893658 -0.014444 62.994269 16.149373 8.118295 179.152737 77.310369 -179.998128 -0.072629 1.481384 -0.001014 0.035110 -0.480218 -0.000000 0.000000 0.000000 0.000000 0.000000 0.000000 0.000000 
2.181354 15.883698 -0.851658 144.336257 -82.975020 -108.646649 -8.190029 -3.548867 0.914097 -5.653883 -5.686634 -82.383734 2.071949 4.732482 74.515916 4.106398 22.469605 15.335829 9.328701 -0.000000 -36.513200 8.811363 1.407219 1.132636 9.318338 6.478766 -63.714762 1.049875 -3.871836 55.051865 -3.175876 -7.097715 -25.445963 2.297201 -0.000000 -46.519000 -1.948651 -1.752349 0.495455 -1.054087 -1.652620 -2.563681 -5.178178 -1.652270 1.295985 10.875109 -15.282238 -12.281568 -1.041713 0.023413 -1.627540 0.000000 0.000000 0.000000 6.590561 14.081872 3.980853 -62.814295 22.198754 1.139924 -1.297256 -68.751319 -0.005464 -0.874568 4.482264 -0.028403 -0.110757 0.078922 -0.000000 0.000000 0.000000 0.000000 0.000000 0.000000 0.000000 5.528272 -9.004614 -0.032447 62.795278 16.121628 8.133550 179.140494 77.223984 -179.997505 0.002991 1.471594 0.000291 0.034441 -0.478907 0.000000 0.000000 0.000000 0.000000 0.000000 0.000000 0.000000 
2.171679 15.929899 -0.876898 141.603076 -83.056225 -106.323299 -8.092647 -3.563621 0.976103 -5.919487 -5.858897 -83.291617 2.102535 4.776726 74.916174 3.964424 21.669765 17.234372 9.527400 0.000000 -36.459600 8.883892 1.378124 1.049952 9.391854 5.868624 -62.890609 1.130250 -3.827098 54.280556 -3.123327 -6.934290 -25.214031 2.227400 0.000000 -46.736100 -2.027045 -1.777422 0.458673 -1.061629 -1.672084 -2.565882 -5.164309 -1.673028 1.340846 10.978536 -15.424352 -12.368524 -1.028208 0.025487 -1.642695 0.000000 0.000000 0.000000 6.756239 14.320030 3.947737 -63.176522 22.842968 1.321796 -1.277406 -69.072442 -0.004924 -1.025968 4.389359 -0.033607 -0.107933 0.075926 -0.000000 0.000000 0.000000 0.000000 0.000000 0.000000 0.000000 5.638616 -9.121201 -0.037282 62.579905 16.071433 8.103864 179.125386 77.109168 -179.996961 0.067517 1.474111 0.001396 0.034277 -0.478189 -0.000000 0.000000 0.000000 0.000000 0.000000 0.000000 0.000000 
2.163866 15.974966 -0.901369 138.502561 -83.176284 -103.566744 -7.980052 -3.575365 1.045618 -6.194997 -6.065190 -84.400836 2.130630 4.833712 75.285597 3.813138 20.741905 18.990743 9.573700 0.000000 -36.954800 8.954660 1.352997 0.959581 9.483194 5.239555 -62.145267 1.214811 -3.785321 53.499919 -3.073265 -6.776186 -24.975593 2.158100 0.000000 -46.896901 -2.090433 -1.807847 0.432570 -1.066720 -1.697471 -2.568695 -5.153801 -1.699685 1.372709 11.101119 -15.571672 -12.466371 -1.016038 0.027784 -1.663121 0.000000 0.000000 0.000000 6.933516 14.498884 3.920457 -63.562763 23.470033 1.448098 -1.253209 -69.434573 -0.004338 -1.177549 4.282813 -0.038412 -0.104689 0.073787 -0.000000 0.000000 0.000000 0.000000 0.000000 0.000000 0.000000 5.771805 -9.242412 -0.028552 62.351982 15.999900 8.026132 179.107599 76.968156 -179.996515 0.116545 1.488997 0.002206 0.034712 -0.478103 -0.000000 0.000000 0.000000 0.000000 0.000000 0.000000 0.000000 
2.158407 16.018758 -0.925159 135.026171 -83.324929 -100.368894 -7.850388 -3.581359 1.119112 -6.482636 -6.305933 -85.704674 2.155863 4.903402 75.608174 3.657233 19.727714 20.581115 9.485100 0.000000 -37.804400 9.024374 1.335027 0.861042 9.589069 4.604092 -61.478424 1.301638 -3.745777 52.714611 -3.026945 -6.631891 -24.727591 2.090300 -0.000000 -47.045800 -2.140703 -1.842026 0.423393 -1.069904 -1.726911 -2.570858 -5.147204 -1.730285 1.391396 11.239869 -15.720525 -12.573174 -1.005644 0.030246 -1.688426 0.000000 0.000000 0.000000 7.122369 14.619623 3.899592 -63.973262 24.071295 1.522255 -1.225538 -69.825409 -0.003716 -1.330212 4.169042 -0.043023 -0.101027 0.072421 -0.000000 0.000000 0.000000 0.000000 0.000000 0.000000 0.000000 5.925443 -9.364720 -0.007414 62.117606 15.906872 7.897434 179.087485 76.801904 -179.996186 0.148156 1.516230 0.002816 0.035731 -0.478669 -0.000000 0.000000 0.000000 0.000000 0.000000 0.000000 0.000000 
